<svg width="34" height="22" viewBox="0 0 34 22" fill="none" xmlns="http://www.w3.org/2000/svg">
<path d="M13.3183 1.15507C4.33038 3.82716 4.81622 12.5722 5.05913 14.5156C1.9012 17.6735 0.443695 20.5885 0.443695 20.5885L1.41537 21.0743C10.6462 5.77051 24.9784 8.68552 24.9784 8.68552V7.47093C16.2334 6.49926 10.1604 9.90011 6.03081 13.301C5.78789 10.143 7.2454 2.61257 16.4763 1.88382C27.1647 1.6409 32.2659 7.95677 32.2659 7.95677C26.6788 16.9447 20.363 18.1593 16.4763 18.6452C12.3467 19.3739 7.2454 16.4589 7.2454 16.4589L6.75956 17.4306C6.75956 17.4306 11.1321 20.3456 16.7192 19.8597C28.8651 18.4022 33.4805 7.71385 33.4805 7.71385C32.2659 5.28467 23.278 -1.27411 13.3183 1.15507Z" fill="#C6F7FF"/>
</svg>
