<svg width="13" height="30" viewBox="0 0 13 30" fill="none" xmlns="http://www.w3.org/2000/svg">
<path d="M5.68662 22.4709C5.68662 22.9568 5.92954 23.4426 5.92954 23.9284C5.92954 25.8718 6.17246 29.0297 6.17246 29.0297H7.38704C7.38704 29.0297 7.38704 23.9284 6.65829 21.2563C5.92954 18.3413 5.68662 12.9971 7.38704 9.11043L6.17246 8.6246C6.17246 8.6246 4.71495 11.5396 4.71495 16.1551C4.71495 19.0701 4.95787 20.2847 5.20078 21.4992C4.22911 20.7705 1.55701 18.3413 1.79993 13.24C2.28577 7.41001 7.38704 2.06581 7.38704 2.06581C7.38704 2.06581 16.375 10.5679 8.35872 20.0417L9.33039 20.7705C9.33039 20.7705 12.9742 16.6409 12.9742 12.0254C12.9742 7.41001 11.0308 3.52332 7.38704 0.365387C7.38704 0.365387 1.07118 6.43834 0.585343 13.7259C0.342425 20.5276 5.4437 22.9568 5.4437 22.9568L5.68662 22.4709Z" fill="#C6F7FF"/>
</svg>
